# xmcd
#
# Track frame offsets:
#	183
#	27248
#	51970
#	85630
#	116173
#	144125
#	170598
#	200635
#	224380
#	251790
#	276308
#	300593
#
# Disc length: 4360 seconds
#
# Revision: 1
# Processed by: cddbd v1.5.1PL2 Copyright (c) Steve Scherf et al.
# Submitted via: EasyCDDAExtractor 8.2.3.1
#
DISCID=af11060c
DTITLE=Various Artist - Happy Anthems Volume 2
DYEAR=1995
DGENRE=Happy Hardcore
TTITLE0=Undercover Elephant - Frantic
TTITLE1=Vinylgroover and C Grayston - Groove Control
TTITLE2=Jimmy J and Cru-L-T - 6 Days
TTITLE3=Happy Tunes - Anthem
TTITLE4=2 Croozin' - 2 Pumpin`
TTITLE5=Red Alert and Mike Slammer - In Effect (Sy and Unknown Remix)
TTITLE6=Happy Tunes - Bust it
TTITLE7=Sy and Unknown - Sudden Impact
TTITLE8=Dougal and Micky Skeedale - Innervation
TTITLE9=Vibes and Wishdokta - I Want Your Love
TTITLE10=Ravers Choice - Givin' It All I Got
TTITLE11=Ravers Choice - Total Mayhem
EXTD=
EXTT0=
EXTT1=
EXTT2=
EXTT3=
EXTT4=
EXTT5=
EXTT6=
EXTT7=
EXTT8=
EXTT9=
EXTT10=
EXTT11=
PLAYORDER=
